<?xml version="1.0" encoding="UTF-8"?>
<svg version="1.1" xmlns="http://www.w3.org/2000/svg" width="24" height="24">
<path d="M0 0 C-0.2475 0.5775 -0.495 1.155 -0.75 1.75 C-0.8325 2.4925 -0.915 3.235 -1 4 C-0.34 4.66 0.32 5.32 1 6 C1.66 6.66 2.32 7.32 3 8 C2.75 10.25 2.75 10.25 2 12 C1.4225 11.690625 0.845 11.38125 0.25 11.0625 C-1.84294184 10.07416636 -3.74535275 9.4831387 -6 9 C-7.32 10.65 -8.64 12.3 -10 14 C-8.35 15.98 -6.7 17.96 -5 20 C-4.236875 19.484375 -3.47375 18.96875 -2.6875 18.4375 C-1.800625 17.963125 -0.91375 17.48875 0 17 C0.99 17.33 1.98 17.66 3 18 C1.84826645 20.46800047 0.95216435 22.04783565 -1 24 C-4.1875 24.625 -4.1875 24.625 -8 24 C-10.8999563 21.71870104 -13.26614466 19.26808917 -15 16 C-14.83492441 11.91755356 -13.35424838 9.81153307 -10.625 6.875 C-10.01914063 6.21242188 -9.41328125 5.54984375 -8.7890625 4.8671875 C-8.19867187 4.25101562 -7.60828125 3.63484375 -7 3 C-6.51273438 2.42507812 -6.02546875 1.85015625 -5.5234375 1.2578125 C-4 -0 -4 -0 0 0 Z " fill="#363021" transform="translate(16,0)"/>
<path d="M0 0 C4.13126473 1.92151848 7.53258866 4.04250209 11 7 C11.598125 6.484375 12.19625 5.96875 12.8125 5.4375 C13.8953125 4.7259375 13.8953125 4.7259375 15 4 C15.99 4.33 16.98 4.66 18 5 C16.84826645 7.46800047 15.95216435 9.04783565 14 11 C10.8125 11.625 10.8125 11.625 7 11 C4.2051749 8.66556276 1.93937057 6.08295079 0 3 C0 2.01 0 1.02 0 0 Z " fill="#261D09" transform="translate(1,13)"/>
<path d="M0 0 C4.29 0 8.58 0 13 0 C13 0.99 13 1.98 13 3 C8.71 3 4.42 3 0 3 C0 2.01 0 1.02 0 0 Z " fill="#A8A6A5" transform="translate(9,13)"/>
<path d="M0 0 C-1.15173355 2.46800047 -2.04783565 4.04783565 -4 6 C-7.625 6.125 -7.625 6.125 -11 6 C-10.34 5.67 -9.68 5.34 -9 5 C-8.67 4.01 -8.34 3.02 -8 2 C-3.63934426 -1.21311475 -3.63934426 -1.21311475 0 0 Z " fill="#E09F1D" transform="translate(19,18)"/>
<path d="M0 0 C0.57363281 0.24105469 1.14726562 0.48210938 1.73828125 0.73046875 C-2.52213101 4.49400911 -6.78020786 8.22928837 -11.26171875 11.73046875 C-10.6911821 7.95811446 -9.09528454 6.10330824 -6.44921875 3.41796875 C-5.41861328 2.34095703 -5.41861328 2.34095703 -4.3671875 1.2421875 C-2.26171875 -0.26953125 -2.26171875 -0.26953125 0 0 Z " fill="#282519" transform="translate(14.26171875,0.26953125)"/>
<path d="M0 0 C2.93453261 0.36681658 3.86437246 0.86437246 6 3 C5.625 5.125 5.625 5.125 5 7 C2.11562221 5.70700306 0.12780579 4.34058637 -2 2 C-1.34 1.34 -0.68 0.68 0 0 Z " fill="#EAAD35" transform="translate(13,5)"/>
</svg>
